<?xml version="1.0" standalone="no"?>
<!DOCTYPE svg PUBLIC "-//W3C//DTD SVG 20010904//EN"
 "http://www.w3.org/TR/2001/REC-SVG-20010904/DTD/svg10.dtd">
<svg version="1.0" xmlns="http://www.w3.org/2000/svg"
 width="320.000000pt" height="320.000000pt" viewBox="0 0 320.000000 320.000000"
 preserveAspectRatio="xMidYMid meet">
<metadata>
Created by potrace 1.15, written by Peter Selinger 2001-2017
</metadata>
<g transform="translate(0.000000,320.000000) scale(0.100000,-0.100000)"
fill="#000000" stroke="none">
<path d="M1559 3145 c-15 -8 -32 -29 -38 -46 -16 -47 -14 -252 3 -294 26 -62
89 -74 137 -26 l29 29 0 147 0 147 -29 29 c-32 32 -62 36 -102 14z"/>
<path d="M909 3055 c-30 -16 -52 -66 -42 -93 16 -43 168 -299 190 -319 34 -32
78 -30 114 6 16 16 29 40 29 53 0 24 -158 308 -188 340 -24 25 -72 31 -103 13z"/>
<path d="M2196 3038 c-48 -50 -186 -299 -186 -337 0 -62 63 -97 125 -69 32 14
205 312 205 352 0 36 -50 86 -85 86 -17 0 -39 -12 -59 -32z"/>
<path d="M503 2531 c-38 -24 -51 -68 -30 -106 18 -36 240 -165 283 -165 64 0
104 91 60 139 -23 26 -223 141 -256 147 -15 3 -38 -3 -57 -15z"/>
<path d="M1416 2531 c-301 -84 -514 -340 -542 -654 -13 -145 27 -263 153 -459
44 -67 89 -139 101 -158 33 -57 62 -156 62 -214 0 -91 -24 -86 414 -86 295 0
386 3 393 12 6 7 13 43 17 79 12 120 31 164 165 369 130 201 157 281 148 449
-16 302 -203 544 -504 653 -86 30 -311 35 -407 9z m234 -233 c37 -65 137 -178
158 -178 7 0 21 20 31 44 35 81 86 105 151 71 32 -16 60 -61 60 -94 0 -42 -23
-71 -77 -96 -29 -14 -53 -30 -53 -35 0 -21 77 -93 148 -140 41 -27 80 -51 86
-53 28 -10 -102 -205 -155 -232 -41 -22 -44 -20 -63 30 -34 87 -105 108 -167
49 -61 -58 -45 -129 36 -165 57 -25 61 -33 36 -72 -29 -47 -181 -156 -217
-157 -6 0 -29 30 -50 66 -47 81 -97 140 -135 160 l-29 15 -19 -44 c-24 -57
-57 -87 -93 -87 -64 0 -118 54 -118 118 0 34 38 73 93 96 38 15 38 15 23 45
-20 38 -79 87 -160 135 -36 21 -66 44 -66 51 0 45 157 239 189 233 9 -2 26
-24 38 -50 28 -60 61 -82 107 -74 37 7 82 51 92 91 10 39 -17 78 -71 106 -27
14 -51 32 -53 41 -6 31 189 188 232 188 6 0 27 -28 46 -62z"/>
<path d="M2520 2484 c-63 -36 -123 -75 -132 -86 -44 -50 -4 -138 62 -138 32 0
223 102 268 143 22 20 29 66 16 102 -7 18 -55 45 -81 45 -10 0 -70 -30 -133
-66z"/>
<path d="M245 1915 c-37 -36 -37 -86 1 -125 24 -25 25 -25 213 -25 185 0 190
1 214 23 14 13 28 35 31 48 8 29 -16 79 -43 94 -12 6 -97 10 -206 10 -184 0
-186 0 -210 -25z"/>
<path d="M2529 1911 c-48 -48 -32 -118 33 -140 47 -17 331 -14 373 3 62 26 74
89 26 137 l-29 29 -187 0 -187 0 -29 -29z"/>
<path d="M720 1442 c-8 -4 -61 -33 -118 -66 -145 -83 -170 -122 -116 -185 41
-49 74 -43 213 39 137 81 156 106 128 166 -21 44 -67 64 -107 46z"/>
<path d="M2399 1421 c-33 -33 -38 -74 -14 -108 23 -33 239 -153 275 -153 66 0
105 88 63 138 -26 30 -244 152 -271 152 -13 0 -37 -13 -53 -29z"/>
<path d="M1210 810 c-29 -29 -27 -94 5 -125 l24 -25 -24 -25 c-34 -34 -35 -97
-1 -128 l24 -23 -24 -21 c-30 -27 -33 -90 -5 -124 l19 -24 358 -3 c245 -2 367
1 385 8 52 22 64 91 24 139 l-26 30 26 25 c14 14 25 37 25 51 0 31 -24 81 -42
88 -10 4 -9 9 3 19 42 35 50 91 18 132 l-20 26 -375 0 c-361 0 -375 -1 -394
-20z"/>
<path d="M1262 178 c3 -25 69 -63 188 -110 130 -51 197 -47 363 25 102 43 137
67 137 92 0 13 -49 15 -346 15 l-345 0 3 -22z"/>
</g>
</svg>
